<mxfile host="app.diagrams.net" modified="2024-01-09T12:15:23.806Z" agent="Mozilla/5.0 (Windows NT 10.0; Win64; x64) AppleWebKit/537.36 (KHTML, like Gecko) Chrome/120.0.0.0 Safari/537.36 Edg/120.0.0.0" etag="waihNDouUvYBez7-NvWQ" version="22.1.17" type="device">
  <diagram name="Stránka-1" id="v8oJoNKxt12kJV0qVF6C">
    <mxGraphModel dx="1355" dy="661" grid="1" gridSize="10" guides="1" tooltips="1" connect="1" arrows="1" fold="1" page="1" pageScale="1" pageWidth="827" pageHeight="1169" math="0" shadow="0">
      <root>
        <mxCell id="0" />
        <mxCell id="1" parent="0" />
        <mxCell id="aLMiQRQqQi-h-w65Et9e-3" value="" style="edgeStyle=orthogonalEdgeStyle;rounded=0;orthogonalLoop=1;jettySize=auto;html=1;" edge="1" parent="1" source="aLMiQRQqQi-h-w65Et9e-1" target="aLMiQRQqQi-h-w65Et9e-2">
          <mxGeometry relative="1" as="geometry" />
        </mxCell>
        <mxCell id="aLMiQRQqQi-h-w65Et9e-1" value="Bubble sort" style="ellipse;whiteSpace=wrap;html=1;" vertex="1" parent="1">
          <mxGeometry x="310" y="40" width="120" height="80" as="geometry" />
        </mxCell>
        <mxCell id="aLMiQRQqQi-h-w65Et9e-7" value="" style="edgeStyle=orthogonalEdgeStyle;rounded=0;orthogonalLoop=1;jettySize=auto;html=1;" edge="1" parent="1" source="aLMiQRQqQi-h-w65Et9e-2" target="aLMiQRQqQi-h-w65Et9e-6">
          <mxGeometry relative="1" as="geometry" />
        </mxCell>
        <mxCell id="aLMiQRQqQi-h-w65Et9e-2" value="N = pole s tím co chceme porovnat" style="shape=parallelogram;perimeter=parallelogramPerimeter;whiteSpace=wrap;html=1;fixedSize=1;" vertex="1" parent="1">
          <mxGeometry x="280" y="150" width="180" height="60" as="geometry" />
        </mxCell>
        <mxCell id="aLMiQRQqQi-h-w65Et9e-11" value="" style="edgeStyle=orthogonalEdgeStyle;rounded=0;orthogonalLoop=1;jettySize=auto;html=1;" edge="1" parent="1" source="aLMiQRQqQi-h-w65Et9e-6" target="aLMiQRQqQi-h-w65Et9e-10">
          <mxGeometry relative="1" as="geometry" />
        </mxCell>
        <mxCell id="aLMiQRQqQi-h-w65Et9e-13" value="" style="edgeStyle=orthogonalEdgeStyle;rounded=0;orthogonalLoop=1;jettySize=auto;html=1;" edge="1" parent="1" source="aLMiQRQqQi-h-w65Et9e-6" target="aLMiQRQqQi-h-w65Et9e-12">
          <mxGeometry relative="1" as="geometry" />
        </mxCell>
        <mxCell id="aLMiQRQqQi-h-w65Et9e-6" value="Tolikrát jak dlouhé je pole N" style="strokeWidth=2;html=1;shape=mxgraph.flowchart.loop_limit;whiteSpace=wrap;" vertex="1" parent="1">
          <mxGeometry x="320" y="230" width="100" height="60" as="geometry" />
        </mxCell>
        <mxCell id="aLMiQRQqQi-h-w65Et9e-10" value="Výsledek je seřazené pole N" style="ellipse;whiteSpace=wrap;html=1;strokeWidth=2;" vertex="1" parent="1">
          <mxGeometry x="200" y="220" width="80" height="80" as="geometry" />
        </mxCell>
        <mxCell id="aLMiQRQqQi-h-w65Et9e-15" value="" style="edgeStyle=orthogonalEdgeStyle;rounded=0;orthogonalLoop=1;jettySize=auto;html=1;" edge="1" parent="1" source="aLMiQRQqQi-h-w65Et9e-12" target="aLMiQRQqQi-h-w65Et9e-14">
          <mxGeometry relative="1" as="geometry" />
        </mxCell>
        <mxCell id="aLMiQRQqQi-h-w65Et9e-25" style="edgeStyle=orthogonalEdgeStyle;rounded=0;orthogonalLoop=1;jettySize=auto;html=1;" edge="1" parent="1" source="aLMiQRQqQi-h-w65Et9e-12" target="aLMiQRQqQi-h-w65Et9e-6">
          <mxGeometry relative="1" as="geometry">
            <mxPoint x="450" y="270" as="targetPoint" />
            <mxPoint x="321.7" y="363.5000000000001" as="sourcePoint" />
            <Array as="points">
              <mxPoint x="290" y="364" />
              <mxPoint x="290" y="580" />
              <mxPoint x="460" y="580" />
              <mxPoint x="460" y="260" />
            </Array>
          </mxGeometry>
        </mxCell>
        <mxCell id="aLMiQRQqQi-h-w65Et9e-12" value="postupně pro všechny dvojice&amp;nbsp;&lt;br&gt;sousedících prvků" style="strokeWidth=2;html=1;shape=mxgraph.flowchart.loop_limit;whiteSpace=wrap;" vertex="1" parent="1">
          <mxGeometry x="320" y="330" width="100" height="60" as="geometry" />
        </mxCell>
        <mxCell id="aLMiQRQqQi-h-w65Et9e-17" value="A" style="edgeStyle=orthogonalEdgeStyle;rounded=0;orthogonalLoop=1;jettySize=auto;html=1;" edge="1" parent="1" source="aLMiQRQqQi-h-w65Et9e-14" target="aLMiQRQqQi-h-w65Et9e-20">
          <mxGeometry relative="1" as="geometry">
            <mxPoint x="470" y="500" as="targetPoint" />
          </mxGeometry>
        </mxCell>
        <mxCell id="aLMiQRQqQi-h-w65Et9e-19" value="N" style="edgeStyle=orthogonalEdgeStyle;rounded=0;orthogonalLoop=1;jettySize=auto;html=1;" edge="1" parent="1" source="aLMiQRQqQi-h-w65Et9e-14" target="aLMiQRQqQi-h-w65Et9e-18">
          <mxGeometry relative="1" as="geometry" />
        </mxCell>
        <mxCell id="aLMiQRQqQi-h-w65Et9e-14" value="jsou dobře seřazené" style="rhombus;whiteSpace=wrap;html=1;strokeWidth=2;" vertex="1" parent="1">
          <mxGeometry x="330" y="420" width="80" height="80" as="geometry" />
        </mxCell>
        <mxCell id="aLMiQRQqQi-h-w65Et9e-18" value="prohodím&amp;nbsp;" style="whiteSpace=wrap;html=1;strokeWidth=2;" vertex="1" parent="1">
          <mxGeometry x="330" y="530" width="80" height="30" as="geometry" />
        </mxCell>
        <mxCell id="aLMiQRQqQi-h-w65Et9e-20" value="" style="shape=waypoint;sketch=0;size=6;pointerEvents=1;points=[];fillColor=default;resizable=0;rotatable=0;perimeter=centerPerimeter;snapToPoint=1;strokeWidth=2;" vertex="1" parent="1">
          <mxGeometry x="430" y="450" width="20" height="20" as="geometry" />
        </mxCell>
        <mxCell id="aLMiQRQqQi-h-w65Et9e-22" style="edgeStyle=orthogonalEdgeStyle;rounded=0;orthogonalLoop=1;jettySize=auto;html=1;" edge="1" parent="1" source="aLMiQRQqQi-h-w65Et9e-20" target="aLMiQRQqQi-h-w65Et9e-20">
          <mxGeometry relative="1" as="geometry" />
        </mxCell>
        <mxCell id="aLMiQRQqQi-h-w65Et9e-23" style="edgeStyle=orthogonalEdgeStyle;rounded=0;orthogonalLoop=1;jettySize=auto;html=1;" edge="1" parent="1" source="aLMiQRQqQi-h-w65Et9e-18" target="aLMiQRQqQi-h-w65Et9e-20">
          <mxGeometry relative="1" as="geometry">
            <mxPoint x="470" y="580" as="targetPoint" />
            <Array as="points">
              <mxPoint x="440" y="545" />
            </Array>
          </mxGeometry>
        </mxCell>
        <mxCell id="aLMiQRQqQi-h-w65Et9e-24" style="edgeStyle=orthogonalEdgeStyle;rounded=0;orthogonalLoop=1;jettySize=auto;html=1;entryX=1;entryY=0.5;entryDx=0;entryDy=0;entryPerimeter=0;exitX=0.5;exitY=0.283;exitDx=0;exitDy=0;exitPerimeter=0;" edge="1" parent="1" source="aLMiQRQqQi-h-w65Et9e-20" target="aLMiQRQqQi-h-w65Et9e-12">
          <mxGeometry relative="1" as="geometry">
            <mxPoint x="560" y="480" as="sourcePoint" />
            <Array as="points">
              <mxPoint x="440" y="360" />
            </Array>
          </mxGeometry>
        </mxCell>
      </root>
    </mxGraphModel>
  </diagram>
</mxfile>
